<?xml version="1.0" encoding="utf-8"?>
<svg viewBox="167.709 115.8 74.48 74.48" width="74.48" height="74.48" xmlns="http://www.w3.org/2000/svg">
  <ellipse style="stroke: rgb(0, 0, 0); fill: rgb(0, 167, 54);" cx="204.949" cy="153.04" rx="37.24" ry="37.24"/>
  <path d="M 234.849 149.417 C 230.812 149.709 225.504 154.426 220.382 157.14 C 214.107 160.462 204.334 157.789 204.334 157.789 C 205.842 156.966 211.965 155.258 213.199 154.622 C 219.757 151.25 219.201 144.213 216.077 144.273 C 211.951 144.353 209.53 145.537 201.3 146.852 C 195.058 147.842 187.68 147.479 184.141 149.063 C 179.144 151.294 171.096 166.317 171.096 166.317 L 183.538 180.423 C 183.538 180.423 191.242 171.55 194.987 171.55 C 203.53 171.55 203.877 171.412 211.806 170.912 C 215.177 170.699 215.881 170.54 217.811 169.774 C 228.09 165.712 239.129 154.883 239.33 153.578 C 239.801 150.562 236.982 149.263 234.849 149.417 Z" style="fill: rgba(255, 255, 255, 0.8);"/>
  <path d="M 185.611 135.421 L 194.758 127.098 L 196.942 129.6 L 190.87 135.272 L 197.238 140.834 L 194.87 143.483 L 185.611 135.421 Z M 208.273 141.019 C 208.988 141.019 209.742 140.834 210.533 140.459 C 211.322 140.087 211.939 139.713 212.385 139.341 L 213.051 138.781 L 214.756 140.869 C 214.508 141.293 214.125 141.778 213.606 142.327 C 213.089 142.873 212.563 143.341 212.032 143.726 C 211.502 144.112 210.798 144.459 209.922 144.771 C 209.044 145.081 208.137 145.237 207.199 145.237 C 205.2 145.237 203.571 144.473 202.31 142.942 C 201.051 141.411 200.423 139.439 200.423 137.025 C 200.423 133.99 201.298 131.33 203.052 129.039 C 204.804 126.75 206.854 125.605 209.2 125.605 C 211.001 125.605 212.402 126.115 213.403 127.136 C 214.403 128.156 214.903 129.587 214.903 131.428 C 214.903 132.522 214.718 133.768 214.348 135.16 L 213.606 135.945 L 204.349 136.803 C 204.768 139.615 206.076 141.019 208.273 141.019 Z M 208.273 129.451 C 207.188 129.451 206.274 129.892 205.532 130.775 C 204.792 131.657 204.36 132.785 204.238 134.153 L 210.533 133.369 C 210.606 132.796 210.644 132.324 210.644 131.951 C 210.644 130.285 209.853 129.451 208.273 129.451 Z M 229.828 135.16 L 220.681 143.483 L 218.495 140.983 L 224.569 135.31 L 218.198 129.75 L 220.569 127.098 L 229.828 135.16 Z" style="fill: currentcolor;"/>
</svg>